<svg width="153" height="50" viewBox="0 0 153 50" fill="none" xmlns="http://www.w3.org/2000/svg">
<g filter="url(#filter0_d_1182_791)">
<rect x="4.08398" y="3" width="143.988" height="41.24" rx="3.79027" fill="white"/>
<rect x="3.13642" y="2.05243" width="145.883" height="43.1351" rx="4.73784" stroke="#E8E8E8" stroke-width="1.89514"/>
</g>
<path d="M35.7196 24.0109C35.747 22.2674 36.889 20.6177 38.7008 19.7045C37.5578 18.3662 35.6434 17.5177 33.6517 17.4666C31.5273 17.2838 29.4679 18.5088 28.3854 18.5088C27.2819 18.5088 25.6151 17.4847 23.8204 17.515C21.4809 17.577 19.3 18.6675 18.1618 20.3443C15.7152 23.8172 17.5402 28.9213 19.8838 31.7285C21.0564 33.1031 22.4268 34.6386 24.22 34.5842C25.9747 34.5245 26.6301 33.6668 28.7482 33.6668C30.8466 33.6668 31.4615 34.5842 33.291 34.5496C35.1739 34.5245 36.3603 33.1688 37.4917 31.7812C38.3342 30.8017 38.9825 29.7192 39.4126 28.5737C37.1998 27.8064 35.7222 25.9807 35.7196 24.0109Z" fill="#282828"/>
<path d="M32.2638 15.6204C33.2905 14.61 33.7963 13.3112 33.6738 12C32.1053 12.1351 30.6565 12.7497 29.616 13.7213C28.5985 14.6707 28.069 15.9466 28.1691 17.2077C29.7381 17.2209 31.2806 16.623 32.2638 15.6204Z" fill="#282828"/>
<path d="M47.6747 22H50.0447C52.2647 22 53.8447 20.57 53.8447 18.56C53.8447 16.55 52.2647 15.13 50.0447 15.13H47.6747V22ZM48.6847 21.08V16.05H50.1047C51.6947 16.05 52.8047 17.09 52.8047 18.56C52.8047 20.04 51.6947 21.08 50.1047 21.08H48.6847ZM57.5919 22.12C59.0619 22.12 60.3019 20.88 60.3019 19.41C60.3019 17.94 59.0619 16.71 57.5919 16.71C56.1119 16.71 54.8619 17.94 54.8619 19.41C54.8619 20.88 56.1119 22.12 57.5919 22.12ZM57.5919 21.26C56.6419 21.26 55.8519 20.42 55.8519 19.41C55.8519 18.41 56.6419 17.57 57.5919 17.57C58.5219 17.57 59.3119 18.41 59.3119 19.41C59.3119 20.42 58.5219 21.26 57.5919 21.26ZM62.5554 22H63.4654L64.7154 18.16L65.9554 22H66.8654L68.6054 16.83H67.5954L66.4154 20.68L65.1354 16.83H64.2954L63.0154 20.68L61.8254 16.83H60.8154L62.5554 22ZM72.2348 16.71C71.5348 16.71 70.9048 17.07 70.5948 17.58V16.83H69.6048V22H70.5948V18.65C70.6748 18.04 71.2948 17.57 72.0148 17.57C72.7148 17.57 73.2048 18.11 73.2048 18.88V22H74.1748V18.71C74.1748 17.54 73.3748 16.71 72.2348 16.71ZM75.5911 22H76.5711V15.01H75.5911V22ZM80.463 22.12C81.933 22.12 83.173 20.88 83.173 19.41C83.173 17.94 81.933 16.71 80.463 16.71C78.983 16.71 77.733 17.94 77.733 19.41C77.733 20.88 78.983 22.12 80.463 22.12ZM80.463 21.26C79.513 21.26 78.723 20.42 78.723 19.41C78.723 18.41 79.513 17.57 80.463 17.57C81.393 17.57 82.183 18.41 82.183 19.41C82.183 20.42 81.393 21.26 80.463 21.26ZM86.5013 16.71C85.9313 16.71 85.2813 16.86 84.5413 17.23L84.9013 17.96C85.3513 17.73 85.8513 17.53 86.3613 17.53C87.3913 17.53 87.6913 18.22 87.6913 18.87V19.03C87.1913 18.86 86.6413 18.75 86.1313 18.75C84.9913 18.75 84.0613 19.44 84.0613 20.47C84.0613 21.48 84.8713 22.12 85.9713 22.12C86.6013 22.12 87.3113 21.83 87.6913 21.29V22H88.6613V18.87C88.6613 17.59 87.8913 16.71 86.5013 16.71ZM86.1613 21.34C85.5113 21.34 85.0113 21 85.0113 20.44C85.0113 19.88 85.5913 19.49 86.2813 19.49C86.7913 19.49 87.2713 19.56 87.6913 19.69V20.38C87.5213 21.02 86.8013 21.34 86.1613 21.34ZM94.073 15.01V17.72C93.673 17.09 93.033 16.71 92.233 16.71C90.873 16.71 89.853 17.83 89.853 19.41C89.853 21 90.873 22.12 92.233 22.12C93.033 22.12 93.673 21.74 94.073 21.1V22H95.053V15.01H94.073ZM92.473 21.26C91.523 21.26 90.853 20.49 90.853 19.41C90.853 18.33 91.523 17.57 92.473 17.57C93.403 17.57 94.073 18.33 94.073 19.41C94.073 20.49 93.403 21.26 92.473 21.26ZM101.85 22.12C103.32 22.12 104.56 20.88 104.56 19.41C104.56 17.94 103.32 16.71 101.85 16.71C100.37 16.71 99.1197 17.94 99.1197 19.41C99.1197 20.88 100.37 22.12 101.85 22.12ZM101.85 21.26C100.9 21.26 100.11 20.42 100.11 19.41C100.11 18.41 100.9 17.57 101.85 17.57C102.78 17.57 103.57 18.41 103.57 19.41C103.57 20.42 102.78 21.26 101.85 21.26ZM108.348 16.71C107.648 16.71 107.018 17.07 106.708 17.58V16.83H105.718V22H106.708V18.65C106.788 18.04 107.408 17.57 108.128 17.57C108.828 17.57 109.318 18.11 109.318 18.88V22H110.288V18.71C110.288 17.54 109.488 16.71 108.348 16.71ZM116.986 21.07C116.876 21.18 116.676 21.26 116.456 21.26C116.166 21.26 115.926 21 115.926 20.64V17.67H117.146V16.83H115.926V15.41H114.956V16.83H114.176V17.67H114.956V20.71C114.956 21.54 115.516 22.12 116.316 22.12C116.686 22.12 117.066 21.98 117.346 21.75L116.986 21.07ZM120.985 16.71C120.275 16.71 119.645 17.08 119.335 17.6V15.01H118.355V22H119.335V18.79C119.335 18.12 119.985 17.57 120.765 17.57C121.465 17.57 121.955 18.11 121.955 18.88V22H122.925V18.71C122.925 17.54 122.125 16.71 120.985 16.71ZM126.711 21.24C125.821 21.24 125.191 20.62 125.061 19.76H129.131C129.131 17.91 128.221 16.71 126.641 16.71C125.211 16.71 124.061 17.85 124.061 19.4C124.061 20.99 125.281 22.12 126.721 22.12C127.451 22.12 128.351 21.81 128.811 21.32L128.191 20.68C127.881 21 127.251 21.24 126.711 21.24ZM126.681 17.59C127.571 17.59 128.061 18.17 128.171 18.97H125.071C125.231 18.13 125.881 17.59 126.681 17.59Z" fill="#282828"/>
<path d="M54.8127 33.7037H57.1367L53.2167 24.0857H50.9067L46.9867 33.7037H49.2967L49.9127 32.1917H54.1967L54.8127 33.7037ZM50.6267 30.4417L52.0547 26.9277L53.4827 30.4417H50.6267ZM62.6804 26.2977C61.6724 26.2977 60.8324 26.7317 60.2584 27.4737V26.4657H58.2144V36.1117H60.2584V32.6817C60.8324 33.4377 61.6724 33.8717 62.6804 33.8717C64.6124 33.8717 66.0124 32.3037 66.0124 30.0777C66.0124 27.8657 64.6124 26.2977 62.6804 26.2977ZM62.0924 32.1497C61.0984 32.1497 60.3704 31.4217 60.2584 30.3577V29.7977C60.3704 28.7477 61.0984 28.0197 62.0924 28.0197C63.2264 28.0197 64.0244 28.8737 64.0244 30.0777C64.0244 31.2957 63.2264 32.1497 62.0924 32.1497ZM71.9225 26.2977C70.9145 26.2977 70.0745 26.7317 69.5005 27.4737V26.4657H67.4565V36.1117H69.5005V32.6817C70.0745 33.4377 70.9145 33.8717 71.9225 33.8717C73.8545 33.8717 75.2545 32.3037 75.2545 30.0777C75.2545 27.8657 73.8545 26.2977 71.9225 26.2977ZM71.3345 32.1497C70.3405 32.1497 69.6125 31.4217 69.5005 30.3577V29.7977C69.6125 28.7477 70.3405 28.0197 71.3345 28.0197C72.4685 28.0197 73.2665 28.8737 73.2665 30.0777C73.2665 31.2957 72.4685 32.1497 71.3345 32.1497ZM84.3049 33.8717C86.6569 33.8717 88.0429 32.6537 88.0429 30.8197C88.0429 29.0417 86.6709 28.4257 84.5989 27.9637C83.1149 27.6277 82.5409 27.4037 82.5409 26.7037C82.5409 26.1297 83.0729 25.6677 83.9549 25.6677C84.8789 25.6677 85.8449 26.0457 86.6989 26.7317L87.7769 25.2477C86.7969 24.4077 85.5789 23.9177 84.0109 23.9177C81.9109 23.9177 80.4549 25.1357 80.4549 26.9137C80.4549 28.7757 81.8969 29.3497 83.9269 29.8117C85.3969 30.1477 85.9569 30.3577 85.9569 31.0437C85.9569 31.6457 85.4249 32.1217 84.3889 32.1217C83.1709 32.1217 82.1349 31.6457 81.2249 30.8617L80.0349 32.2757C81.1549 33.3117 82.6389 33.8717 84.3049 33.8717ZM93.2763 31.9117C93.1363 32.0517 92.8563 32.1497 92.5763 32.1497C92.1983 32.1497 91.8903 31.8137 91.8903 31.3377V28.1177H93.4583V26.4657H91.8903V24.4777H89.9303V26.4657H88.9363V28.1177H89.9303V31.6597C89.9303 32.9617 90.8263 33.8717 92.1003 33.8717C92.6883 33.8717 93.3463 33.6197 93.7663 33.2417L93.2763 31.9117ZM98.6024 33.8717C100.744 33.8717 102.536 32.1357 102.536 30.0777C102.536 28.0197 100.744 26.2977 98.6024 26.2977C96.4464 26.2977 94.6404 28.0197 94.6404 30.0777C94.6404 32.1357 96.4464 33.8717 98.6024 33.8717ZM98.6024 32.1497C97.5104 32.1497 96.6004 31.1977 96.6004 30.0777C96.6004 28.9577 97.5104 28.0197 98.6024 28.0197C99.6804 28.0197 100.59 28.9577 100.59 30.0777C100.59 31.1977 99.6804 32.1497 98.6024 32.1497ZM105.963 27.8097V26.4657H103.919V33.7037H105.963V30.2457C105.963 28.8877 106.929 28.0197 108.441 28.0197V26.2977C107.335 26.2977 106.439 26.8717 105.963 27.8097ZM113.037 32.0657C112.183 32.0657 111.553 31.5337 111.315 30.7497H116.537C116.537 28.0197 115.207 26.2977 112.939 26.2977C110.825 26.2977 109.215 27.8797 109.215 30.0637C109.215 32.2897 110.895 33.8717 113.051 33.8717C114.115 33.8717 115.361 33.4237 116.005 32.7517L114.703 31.4217C114.311 31.7997 113.611 32.0657 113.037 32.0657ZM113.023 28.1037C113.849 28.1037 114.381 28.5657 114.577 29.2797H111.343C111.609 28.5517 112.253 28.1037 113.023 28.1037Z" fill="#282828"/>
<defs>
<filter id="filter0_d_1182_791" x="0.000867367" y="0.332416" width="152.155" height="49.4074" filterUnits="userSpaceOnUse" color-interpolation-filters="sRGB">
<feFlood flood-opacity="0" result="BackgroundImageFix"/>
<feColorMatrix in="SourceAlpha" type="matrix" values="0 0 0 0 0 0 0 0 0 0 0 0 0 0 0 0 0 0 127 0" result="hardAlpha"/>
<feOffset dy="1.41614"/>
<feGaussianBlur stdDeviation="1.09429"/>
<feColorMatrix type="matrix" values="0 0 0 0 0 0 0 0 0 0 0 0 0 0 0 0 0 0 0.0268173 0"/>
<feBlend mode="normal" in2="BackgroundImageFix" result="effect1_dropShadow_1182_791"/>
<feBlend mode="normal" in="SourceGraphic" in2="effect1_dropShadow_1182_791" result="shape"/>
</filter>
</defs>
</svg>
