<svg width="16" height="16" viewBox="0 0 16 16" fill="none" xmlns="http://www.w3.org/2000/svg">
<path d="M3.2 12H4.4V10.8H11.6V12H12.8V8.68C12.8 8.28 12.6899 7.9232 12.4696 7.6096C12.2499 7.29653 11.96 7.06667 11.6 6.92V5.6C11.6 5.16 11.4435 4.7832 11.1304 4.4696C10.8168 4.15653 10.44 4 10 4H6C5.56 4 5.18347 4.15653 4.8704 4.4696C4.5568 4.7832 4.4 5.16 4.4 5.6V6.92C4.04 7.06667 3.74987 7.29653 3.5296 7.6096C3.30987 7.9232 3.2 8.28 3.2 8.68V12ZM4.4 9.6V8.68C4.4 8.49333 4.46667 8.33333 4.6 8.2C4.73333 8.06667 4.89333 8 5.08 8H10.92C11.1067 8 11.2667 8.06667 11.4 8.2C11.5333 8.33333 11.6 8.49333 11.6 8.68V9.6H4.4ZM5.6 6.8V5.2H10.4V6.8H5.6ZM1.6 16C1.16 16 0.783467 15.8435 0.4704 15.5304C0.1568 15.2168 0 14.84 0 14.4V1.6C0 1.16 0.1568 0.7832 0.4704 0.4696C0.783467 0.156533 1.16 0 1.6 0H14.4C14.84 0 15.2168 0.156533 15.5304 0.4696C15.8435 0.7832 16 1.16 16 1.6V14.4C16 14.84 15.8435 15.2168 15.5304 15.5304C15.2168 15.8435 14.84 16 14.4 16H1.6ZM1.6 14.4H14.4V1.6H1.6V14.4ZM1.6 14.4V1.6V14.4Z" fill="black"/>
</svg>
