<svg width="16" height="11" viewBox="0 0 16 11" fill="none" xmlns="http://www.w3.org/2000/svg">
<path d="M0.8 9.3302V10.2667C0.8 10.4612 0.884285 10.6477 1.03431 10.7852C1.18434 10.9227 1.38783 11 1.6 11H2.4C2.61217 11 2.81566 10.9227 2.96569 10.7852C3.11571 10.6477 3.2 10.4612 3.2 10.2667V9.53333H12.8V10.2667C12.8 10.4612 12.8843 10.6477 13.0343 10.7852C13.1843 10.9227 13.3878 11 13.6 11H14.4C14.6122 11 14.8157 10.9227 14.9657 10.7852C15.1157 10.6477 15.2 10.4612 15.2 10.2667V9.3302C15.4427 9.20261 15.6445 9.01863 15.7849 8.79681C15.9254 8.57498 15.9995 8.32314 16 8.06667V5.86667C16 5.25727 15.5944 4.73587 15.0176 4.51367L13.9232 1.50407C13.7644 1.06589 13.4591 0.684713 13.0505 0.414706C12.6419 0.144698 12.1509 -0.000409351 11.6472 8.67368e-07H4.3528C3.84911 -0.000409351 3.35809 0.144698 2.94951 0.414706C2.54092 0.684713 2.23556 1.06589 2.0768 1.50407L0.9824 4.51367C0.69144 4.62537 0.442969 4.81339 0.268188 5.0541C0.0934057 5.29482 0.00010453 5.57751 0 5.86667V8.06667C0 8.60787 0.3232 9.07573 0.8 9.3302ZM2.8 8.06667C2.64236 8.06662 2.48628 8.03811 2.34066 7.98277C2.19504 7.92742 2.06274 7.84633 1.95131 7.74412C1.72626 7.53769 1.59989 7.25777 1.6 6.96593C1.60011 6.6741 1.72668 6.39425 1.95187 6.18796C2.17707 5.98167 2.48243 5.86584 2.8008 5.86593C3.11917 5.86603 3.42445 5.98206 3.64949 6.18848C3.87454 6.39491 4.00091 6.67483 4.0008 6.96667C4.00069 7.2585 3.87412 7.53835 3.64893 7.74464C3.42373 7.95093 3.11837 8.06676 2.8 8.06667ZM13.2 8.06667C12.8816 8.06657 12.5764 7.95054 12.3513 7.74412C12.1263 7.53769 11.9999 7.25777 12 6.96593C12.0001 6.6741 12.1267 6.39425 12.3519 6.18796C12.5771 5.98167 12.8824 5.86584 13.2008 5.86593C13.5192 5.86603 13.8244 5.98206 14.0495 6.18848C14.2745 6.39491 14.4009 6.67483 14.4008 6.96667C14.4007 7.2585 14.2741 7.53835 14.0489 7.74464C13.8237 7.95093 13.5184 8.06676 13.2 8.06667ZM4.3528 1.46667H11.6464C11.8144 1.46663 11.9781 1.51506 12.1144 1.60509C12.2506 1.69512 12.3525 1.82218 12.4056 1.96827L13.2904 4.4H2.7096L3.5936 1.96827C3.7032 1.66833 4.0088 1.46667 4.3528 1.46667Z" fill="black"/>
</svg>
