<svg width="19" height="19" viewBox="0 0 19 19" fill="none" xmlns="http://www.w3.org/2000/svg">
<g clip-path="url(#clip0_1182_667)">
<path d="M17.9778 1.43062e-06H1.03878C0.739833 -0.000563689 0.46594 0.166334 0.32937 0.432128C0.190916 0.7015 0.215216 1.02588 0.392098 1.27189L6.59784 10.0141C6.59991 10.0171 6.60217 10.0199 6.60424 10.0229C6.82973 10.3273 6.95179 10.6962 6.95236 11.075V18.2024C6.95104 18.4134 7.03392 18.6163 7.18255 18.766C7.33136 18.9156 7.53367 19 7.74465 19C7.85184 18.9998 7.95808 18.9785 8.05716 18.9373L11.5443 17.6077C11.8566 17.5122 12.064 17.2174 12.064 16.8625V11.075C12.0646 10.6962 12.1867 10.3273 12.412 10.0229C12.414 10.0199 12.4163 10.0171 12.4184 10.0141L18.6243 1.2717C18.8012 1.02588 18.8255 0.701689 18.687 0.432316C18.5506 0.166334 18.2766 -0.000563689 17.9778 1.43062e-06Z" fill="black"/>
</g>
<defs>
<clipPath id="clip0_1182_667">
<rect width="19" height="19" fill="white"/>
</clipPath>
</defs>
</svg>
