<svg width="153" height="50" viewBox="0 0 153 50" fill="none" xmlns="http://www.w3.org/2000/svg">
<g filter="url(#filter0_d_1182_790)">
<rect x="4.5332" y="3.0614" width="143.985" height="41.2367" rx="3.79027" fill="white"/>
<rect x="3.58564" y="2.11383" width="145.88" height="43.1319" rx="4.73784" stroke="#E8E8E8" stroke-width="1.89514"/>
</g>
<path d="M50.5938 17.2355H52.4338V18.6755C51.9638 19.0355 51.3138 19.2455 50.7338 19.2455C49.3538 19.2455 48.1938 18.0455 48.1938 16.6155C48.1938 15.1955 49.3538 13.9955 50.7338 13.9955C51.4438 13.9955 52.2538 14.3155 52.7238 14.8255L53.4338 14.1455C52.7838 13.4755 51.7038 13.0655 50.7338 13.0655C48.8038 13.0655 47.1538 14.6855 47.1538 16.6155C47.1538 18.5455 48.8038 20.1755 50.7338 20.1755C51.7038 20.1755 52.7838 19.7555 53.4338 19.0955V16.3555H50.5938V17.2355ZM57.2052 19.2955C56.3152 19.2955 55.6852 18.6755 55.5552 17.8155H59.6252C59.6252 15.9655 58.7152 14.7655 57.1352 14.7655C55.7052 14.7655 54.5552 15.9055 54.5552 17.4555C54.5552 19.0455 55.7752 20.1755 57.2152 20.1755C57.9452 20.1755 58.8452 19.8655 59.3052 19.3755L58.6852 18.7355C58.3752 19.0555 57.7452 19.2955 57.2052 19.2955ZM57.1752 15.6455C58.0652 15.6455 58.5552 16.2255 58.6652 17.0255H55.5652C55.7252 16.1855 56.3752 15.6455 57.1752 15.6455ZM63.1927 19.1255C63.0827 19.2355 62.8827 19.3155 62.6627 19.3155C62.3727 19.3155 62.1327 19.0555 62.1327 18.6955V15.7255H63.3527V14.8855H62.1327V13.4655H61.1627V14.8855H60.3827V15.7255H61.1627V18.7655C61.1627 19.5955 61.7227 20.1755 62.5227 20.1755C62.8927 20.1755 63.2727 20.0355 63.5527 19.8055L63.1927 19.1255ZM67.9131 14.0255C68.2331 14.0255 68.5031 13.7455 68.5031 13.4255C68.5031 13.1155 68.2331 12.8355 67.9131 12.8355C67.5731 12.8355 67.3131 13.1155 67.3131 13.4255C67.3131 13.7455 67.5731 14.0255 67.9131 14.0255ZM67.4131 20.0555H68.4031V14.8855H67.4131V20.0555ZM72.2552 19.1255C72.1452 19.2355 71.9452 19.3155 71.7252 19.3155C71.4352 19.3155 71.1952 19.0555 71.1952 18.6955V15.7255H72.4152V14.8855H71.1952V13.4655H70.2252V14.8855H69.4452V15.7255H70.2252V18.7655C70.2252 19.5955 70.7852 20.1755 71.5852 20.1755C71.9552 20.1755 72.3352 20.0355 72.6152 19.8055L72.2552 19.1255ZM79.8156 20.1755C81.7456 20.1755 83.3656 18.5455 83.3656 16.6155C83.3656 14.6855 81.7456 13.0655 79.8156 13.0655C77.8856 13.0655 76.2456 14.6855 76.2456 16.6155C76.2456 18.5455 77.8856 20.1755 79.8156 20.1755ZM79.8156 19.2455C78.4456 19.2455 77.2856 18.0455 77.2856 16.6155C77.2856 15.1955 78.4456 13.9955 79.8156 13.9955C81.1856 13.9955 82.3356 15.1955 82.3356 16.6155C82.3356 18.0455 81.1856 19.2455 79.8156 19.2455ZM87.2016 14.7655C86.5016 14.7655 85.8716 15.1255 85.5616 15.6355V14.8855H84.5716V20.0555H85.5616V16.7055C85.6416 16.0955 86.2616 15.6255 86.9816 15.6255C87.6816 15.6255 88.1716 16.1655 88.1716 16.9355V20.0555H89.1416V16.7655C89.1416 15.5955 88.3416 14.7655 87.2016 14.7655Z" fill="#282828"/>
<path d="M52.0358 27.9653H54.2758V29.4353C53.7298 29.8273 53.0578 30.0513 52.3998 30.0513C50.7618 30.0513 49.3758 28.6233 49.3758 26.9433C49.3758 25.2773 50.7618 23.8493 52.3998 23.8493C53.2818 23.8493 54.2198 24.2693 54.7938 24.9273L56.2918 23.5833C55.3258 22.5753 53.8418 21.9733 52.3998 21.9733C49.6138 21.9733 47.2478 24.2413 47.2478 26.9433C47.2478 29.6453 49.6138 31.9273 52.3998 31.9273C53.8418 31.9273 55.3258 31.3253 56.2918 30.3173V26.3553H52.0358V27.9653ZM61.5301 31.9273C63.6721 31.9273 65.4641 30.1913 65.4641 28.1333C65.4641 26.0753 63.6721 24.3533 61.5301 24.3533C59.3741 24.3533 57.5681 26.0753 57.5681 28.1333C57.5681 30.1913 59.3741 31.9273 61.5301 31.9273ZM61.5301 30.2053C60.4381 30.2053 59.5281 29.2533 59.5281 28.1333C59.5281 27.0133 60.4381 26.0753 61.5301 26.0753C62.6081 26.0753 63.5181 27.0133 63.5181 28.1333C63.5181 29.2533 62.6081 30.2053 61.5301 30.2053ZM70.4032 31.9273C72.5452 31.9273 74.3372 30.1913 74.3372 28.1333C74.3372 26.0753 72.5452 24.3533 70.4032 24.3533C68.2472 24.3533 66.4412 26.0753 66.4412 28.1333C66.4412 30.1913 68.2472 31.9273 70.4032 31.9273ZM70.4032 30.2053C69.3112 30.2053 68.4012 29.2533 68.4012 28.1333C68.4012 27.0133 69.3112 26.0753 70.4032 26.0753C71.4812 26.0753 72.3912 27.0133 72.3912 28.1333C72.3912 29.2533 71.4812 30.2053 70.4032 30.2053ZM80.9562 24.5213V25.5013C80.4662 24.8153 79.5422 24.3533 78.5622 24.3533C76.7422 24.3533 75.3562 25.7673 75.3562 27.7833C75.3562 29.7993 76.7422 31.2273 78.5622 31.2273C79.5142 31.2273 80.3822 30.8073 80.9562 30.1073V30.9053C80.9562 31.8433 80.1162 32.4453 78.8002 32.4453C77.9602 32.4453 77.1202 32.1793 76.6442 31.7593L75.9302 33.2013C76.6442 33.7613 77.8482 34.1673 79.1222 34.1673C81.4042 34.1673 83.0142 32.8513 83.0142 30.9893V24.5213H80.9562ZM79.2062 29.5053C78.1842 29.5053 77.4562 28.7913 77.4562 27.7833C77.4562 26.7753 78.1842 26.0753 79.2062 26.0753C80.2282 26.0753 80.9562 26.7753 80.9562 27.7833C80.9562 28.7913 80.2282 29.5053 79.2062 29.5053ZM84.812 31.7593H86.856V21.9733H84.812V31.7593ZM92.0561 30.1213C91.2021 30.1213 90.5721 29.5893 90.3341 28.8053H95.5561C95.5561 26.0753 94.2261 24.3533 91.9581 24.3533C89.8441 24.3533 88.2341 25.9353 88.2341 28.1193C88.2341 30.3453 89.9141 31.9273 92.0701 31.9273C93.1341 31.9273 94.3801 31.4793 95.0241 30.8073L93.7221 29.4773C93.3301 29.8553 92.6301 30.1213 92.0561 30.1213ZM92.0421 26.1593C92.8681 26.1593 93.4001 26.6213 93.5961 27.3353H90.3621C90.6281 26.6073 91.2721 26.1593 92.0421 26.1593ZM100.905 31.7593H102.963V28.6373H105.231C107.317 28.6373 108.857 27.2933 108.857 25.3893C108.857 23.4853 107.317 22.1413 105.231 22.1413H100.905V31.7593ZM102.963 26.7473V24.0313H105.007C106.029 24.0313 106.729 24.5633 106.729 25.3893C106.729 26.2153 106.029 26.7473 105.007 26.7473H102.963ZM110.091 31.7593H112.135V21.9733H110.091V31.7593ZM117.153 24.3533C116.145 24.3533 115.151 24.6333 114.129 25.1513L114.815 26.5093C115.389 26.2153 116.019 25.9913 116.691 25.9913C117.881 25.9913 118.357 26.6633 118.357 27.4333V27.5733C117.741 27.3353 117.097 27.2093 116.509 27.2093C114.829 27.2093 113.499 28.1893 113.499 29.6173C113.499 31.0033 114.689 31.9273 116.229 31.9273C117.013 31.9273 117.839 31.6193 118.357 31.0313V31.7593H120.331V27.4333C120.331 25.5433 119.043 24.3533 117.153 24.3533ZM116.691 30.5133C115.991 30.5133 115.473 30.1493 115.473 29.5613C115.473 28.9733 116.061 28.5393 116.803 28.5393C117.363 28.5393 117.895 28.6373 118.357 28.8053V29.4773C118.217 30.1493 117.475 30.5133 116.691 30.5133ZM123.706 34.2793C124.84 34.2793 125.764 33.5373 126.31 32.1233L129.278 24.5213H127.192L125.386 29.6033L123.482 24.5213H121.368L124.378 31.8293L124.126 32.3613C123.972 32.6273 123.664 32.7533 123.272 32.7533C123.034 32.7533 122.67 32.6273 122.32 32.4313L121.886 33.8313C122.376 34.0973 123.104 34.2793 123.706 34.2793Z" fill="#282828"/>
<g filter="url(#filter1_ii_1182_790)">
<path d="M14.6158 11.5308C14.3 11.7989 14.1133 12.2149 14.1133 12.7537V32.0028C14.1133 32.5424 14.3 32.9576 14.6158 33.2257L14.6961 33.2883L28.1428 22.5053V22.3782V22.2512L14.6961 11.4673L14.6158 11.5308Z" fill="url(#paint0_linear_1182_790)"/>
<path d="M32.6241 26.1008L28.1426 22.5053V22.3782V22.2511L32.6252 18.6565L32.7261 18.7026L38.0368 21.1223C39.5531 21.8133 39.5531 22.9439 38.0368 23.6359L32.7261 26.0555L32.6241 26.1008Z" fill="url(#paint1_linear_1182_790)"/>
<g filter="url(#filter2_i_1182_790)">
<path d="M32.7258 26.0546L28.1412 22.3782L14.6152 33.2256C15.1145 33.6503 15.9405 33.7026 16.8706 33.2796L32.7258 26.0546Z" fill="url(#paint2_linear_1182_790)"/>
</g>
<path d="M32.7258 18.7018L16.8706 11.4777C15.9405 11.0538 15.1145 11.1069 14.6152 11.5317L28.1422 22.3791L32.7258 18.7018Z" fill="url(#paint3_linear_1182_790)"/>
</g>
<defs>
<filter id="filter0_d_1182_790" x="0.450086" y="0.393818" width="152.153" height="49.4041" filterUnits="userSpaceOnUse" color-interpolation-filters="sRGB">
<feFlood flood-opacity="0" result="BackgroundImageFix"/>
<feColorMatrix in="SourceAlpha" type="matrix" values="0 0 0 0 0 0 0 0 0 0 0 0 0 0 0 0 0 0 127 0" result="hardAlpha"/>
<feOffset dy="1.41614"/>
<feGaussianBlur stdDeviation="1.09429"/>
<feColorMatrix type="matrix" values="0 0 0 0 0 0 0 0 0 0 0 0 0 0 0 0 0 0 0.0268173 0"/>
<feBlend mode="normal" in2="BackgroundImageFix" result="effect1_dropShadow_1182_790"/>
<feBlend mode="normal" in="SourceGraphic" in2="effect1_dropShadow_1182_790" result="shape"/>
</filter>
<filter id="filter1_ii_1182_790" x="14.1133" y="11.1852" width="25.0605" height="22.3866" filterUnits="userSpaceOnUse" color-interpolation-filters="sRGB">
<feFlood flood-opacity="0" result="BackgroundImageFix"/>
<feBlend mode="normal" in="SourceGraphic" in2="BackgroundImageFix" result="shape"/>
<feColorMatrix in="SourceAlpha" type="matrix" values="0 0 0 0 0 0 0 0 0 0 0 0 0 0 0 0 0 0 127 0" result="hardAlpha"/>
<feOffset dy="-0.15"/>
<feComposite in2="hardAlpha" operator="arithmetic" k2="-1" k3="1"/>
<feColorMatrix type="matrix" values="0 0 0 0 0 0 0 0 0 0 0 0 0 0 0 0 0 0 0.12 0"/>
<feBlend mode="normal" in2="shape" result="effect1_innerShadow_1182_790"/>
<feColorMatrix in="SourceAlpha" type="matrix" values="0 0 0 0 0 0 0 0 0 0 0 0 0 0 0 0 0 0 127 0" result="hardAlpha"/>
<feOffset dy="0.15"/>
<feComposite in2="hardAlpha" operator="arithmetic" k2="-1" k3="1"/>
<feColorMatrix type="matrix" values="0 0 0 0 1 0 0 0 0 1 0 0 0 0 1 0 0 0 0.25 0"/>
<feBlend mode="normal" in2="effect1_innerShadow_1182_790" result="effect2_innerShadow_1182_790"/>
</filter>
<filter id="filter2_i_1182_790" x="14.6152" y="22.3782" width="18.1113" height="11.1936" filterUnits="userSpaceOnUse" color-interpolation-filters="sRGB">
<feFlood flood-opacity="0" result="BackgroundImageFix"/>
<feBlend mode="normal" in="SourceGraphic" in2="BackgroundImageFix" result="shape"/>
<feColorMatrix in="SourceAlpha" type="matrix" values="0 0 0 0 0 0 0 0 0 0 0 0 0 0 0 0 0 0 127 0" result="hardAlpha"/>
<feOffset dy="-0.15"/>
<feComposite in2="hardAlpha" operator="arithmetic" k2="-1" k3="1"/>
<feColorMatrix type="matrix" values="0 0 0 0 0 0 0 0 0 0 0 0 0 0 0 0 0 0 0.08 0"/>
<feBlend mode="normal" in2="shape" result="effect1_innerShadow_1182_790"/>
</filter>
<linearGradient id="paint0_linear_1182_790" x1="26.9509" y1="12.55" x2="12.6931" y2="30.3297" gradientUnits="userSpaceOnUse">
<stop stop-color="#00A0FF"/>
<stop offset="0.0066" stop-color="#00A1FF"/>
<stop offset="0.2601" stop-color="#00BEFF"/>
<stop offset="0.5122" stop-color="#00D2FF"/>
<stop offset="0.7604" stop-color="#00DFFF"/>
<stop offset="1" stop-color="#00E3FF"/>
</linearGradient>
<linearGradient id="paint1_linear_1182_790" x1="40.0106" y1="22.3782" x2="13.749" y2="22.3782" gradientUnits="userSpaceOnUse">
<stop stop-color="#FFE000"/>
<stop offset="0.4087" stop-color="#FFBD00"/>
<stop offset="0.7754" stop-color="#FFA500"/>
<stop offset="1" stop-color="#FF9C00"/>
</linearGradient>
<linearGradient id="paint2_linear_1182_790" x1="30.236" y1="24.3747" x2="10.9008" y2="48.4862" gradientUnits="userSpaceOnUse">
<stop stop-color="#FF3A44"/>
<stop offset="1" stop-color="#C31162"/>
</linearGradient>
<linearGradient id="paint3_linear_1182_790" x1="11.2087" y1="5.12381" x2="19.8424" y2="15.8903" gradientUnits="userSpaceOnUse">
<stop stop-color="#32A071"/>
<stop offset="0.0685" stop-color="#2DA771"/>
<stop offset="0.4762" stop-color="#15CF74"/>
<stop offset="0.8009" stop-color="#06E775"/>
<stop offset="1" stop-color="#00F076"/>
</linearGradient>
</defs>
</svg>
