<svg width="367" height="367" viewBox="0 0 367 367" fill="none" xmlns="http://www.w3.org/2000/svg">
<path d="M183.5 0C82.1392 0 0 82.1392 0 183.5C0 284.861 82.1392 367 183.5 367C284.861 367 367 284.861 367 183.5C367 82.1392 284.861 0 183.5 0ZM280.847 280.847C254.813 306.789 220.269 321.125 183.5 321.125C146.731 321.125 112.187 306.789 86.1533 280.847C60.2109 254.813 45.875 220.269 45.875 183.5C45.875 146.731 60.2109 112.187 86.1533 86.1533C112.187 60.2109 146.731 45.875 183.5 45.875C220.269 45.875 254.813 60.2109 280.847 86.1533C306.789 112.187 321.125 146.731 321.125 183.5C321.125 220.269 306.789 254.813 280.847 280.847ZM247.358 112.761L160.929 208.8L120.697 169.095L88.447 201.712L162.856 275.25L281.42 143.428L247.358 112.761Z" fill="#84745C"/>
</svg>
