<svg width="20" height="19" viewBox="0 0 20 19" fill="none" xmlns="http://www.w3.org/2000/svg">
<path d="M18.6667 10.4712H2.66667V3.36385C2.66589 3.0962 2.72115 2.83105 2.82924 2.58377C2.93733 2.33648 3.09611 2.11197 3.29638 1.92323L3.31304 1.90744C3.6269 1.61045 4.02986 1.41253 4.46688 1.34071C4.9039 1.26889 5.35365 1.32669 5.75471 1.50619C5.37595 2.10297 5.21851 2.80258 5.30743 3.49387C5.39635 4.18515 5.72651 4.82845 6.24546 5.32153L6.70175 5.75393L5.86187 6.54988L6.80462 7.44327L7.6445 6.64737L12.2982 2.23738L13.1381 1.44148L12.1953 0.548043L11.3554 1.34395L10.8991 0.911544C10.3528 0.395287 9.63264 0.0770469 8.86416 0.0122811C8.09568 -0.0524847 7.32758 0.14033 6.69371 0.557125C6.0253 0.157105 5.23319 -0.0155861 4.44752 0.0674197C3.66185 0.150425 2.92932 0.484192 2.37029 1.01389L2.35363 1.02968C2.02914 1.33549 1.77189 1.69926 1.59676 2.09992C1.42162 2.50058 1.33209 2.93018 1.33333 3.36385V10.4712H0V11.7347H1.33333V12.9469C1.3333 13.0488 1.35064 13.15 1.38467 13.2466L2.625 16.7726C2.69119 16.9614 2.81847 17.1256 2.98875 17.2419C3.15904 17.3582 3.36367 17.4208 3.57358 17.4206H4.11108L3.625 19H5.01387L5.5 17.4206H14.1708L14.6708 19H16.0625L15.5625 17.4206H16.4262C16.6362 17.4208 16.8409 17.3583 17.0112 17.242C17.1815 17.1256 17.3088 16.9614 17.375 16.7726L18.6152 13.2466C18.6493 13.15 18.6666 13.0488 18.6667 12.9469V11.7347H20V10.4712H18.6667ZM7.18833 1.80498C7.55566 1.45763 8.05339 1.26256 8.57231 1.26256C9.09123 1.26256 9.58896 1.45763 9.95629 1.80498L10.4125 2.23738L7.64462 4.86034L7.18833 4.42802C6.82182 4.07991 6.61599 3.60824 6.61599 3.1165C6.61599 2.62475 6.82182 2.15309 7.18833 1.80498ZM17.3333 12.8956L16.1862 16.1571H3.81383L2.66667 12.8956V11.7347H17.3333V12.8956Z" fill="black"/>
</svg>
